<?xml version="1.0" encoding="utf-8"?>
<!-- Generator: Adobe Illustrator 25.3.1, SVG Export Plug-In . SVG Version: 6.00 Build 0)  -->
<svg version="1.1" id="Capa_1" xmlns="http://www.w3.org/2000/svg" xmlns:xlink="http://www.w3.org/1999/xlink" x="0px" y="0px"
	 viewBox="0 0 300 54.7" style="enable-background:new 0 0 300 54.7;" xml:space="preserve">
<style type="text/css">
	.st0{fill:#FFFFFF;}
	.st1{fill:#DE0E7E;}
</style>
<g>
	<g>
		<path class="st0" d="M100.02,48.02l-7.97-11.52h-0.47h-8.33v11.52h-9.57V6.68h17.9c11.04,0,17.96,5.73,17.96,15
			c0,6.2-3.13,10.75-8.51,13.05l9.27,13.29H100.02z M91.04,14.47h-7.8v14.41h7.8c5.85,0,8.8-2.72,8.8-7.21
			C99.84,17.13,96.89,14.47,91.04,14.47z"/>
		<path class="st0" d="M116.75,29.83V6.68h9.57v22.8c0,7.86,3.43,11.1,9.21,11.1c5.85,0,9.21-3.25,9.21-11.1V6.68h9.45v23.15
			c0,12.17-6.97,18.9-18.72,18.9S116.75,42,116.75,29.83z"/>
		<path class="st0" d="M173.25,14.36v10.93h19.14v7.68h-19.14v15.06h-9.57V6.68h31.24v7.68H173.25z"/>
		<path class="st0" d="M201.09,29.83V6.68h9.57v22.8c0,7.86,3.43,11.1,9.21,11.1c5.85,0,9.21-3.25,9.21-11.1V6.68h9.45v23.15
			c0,12.17-6.97,18.9-18.72,18.9S201.09,42,201.09,29.83z"/>
		<path class="st0" d="M244.76,43.95l3.25-7.2c3.48,2.54,8.68,4.31,13.64,4.31c5.67,0,7.97-1.89,7.97-4.43
			c0-7.74-24.04-2.42-24.04-17.78c0-7.03,5.67-12.87,17.42-12.87c5.2,0,10.51,1.24,14.35,3.66l-2.95,7.27
			c-3.84-2.19-7.8-3.25-11.46-3.25c-5.67,0-7.86,2.13-7.86,4.73c0,7.62,24.04,2.36,24.04,17.54c0,6.91-5.73,12.82-17.54,12.82
			C255.04,48.73,248.43,46.78,244.76,43.95z"/>
	</g>
	<path class="st1" d="M4.94,18.98L4.94,18.98c-1.8,0-3.26,1.46-3.26,3.26v10.22c0,1.8,1.46,3.26,3.26,3.26h0
		c1.8,0,3.26-1.46,3.26-3.26V22.24C8.2,20.44,6.74,18.98,4.94,18.98z"/>
	<path class="st1" d="M21.64,2.28L21.64,2.28c-1.8,0-3.26,1.46-3.26,3.26v43.62c0,1.8,1.46,3.26,3.26,3.26h0
		c1.8,0,3.26-1.46,3.26-3.26V5.54C24.9,3.74,23.44,2.28,21.64,2.28z"/>
	<path class="st1" d="M38.34,10.63L38.34,10.63c-1.8,0-3.26,1.46-3.26,3.26v26.92c0,1.8,1.46,3.26,3.26,3.26h0
		c1.8,0,3.26-1.46,3.26-3.26V13.89C41.6,12.09,40.14,10.63,38.34,10.63z"/>
	<path class="st1" d="M55.03,18.98L55.03,18.98c-1.8,0-3.26,1.46-3.26,3.26v10.22c0,1.8,1.46,3.26,3.26,3.26h0
		c1.8,0,3.26-1.46,3.26-3.26V22.24C58.3,20.44,56.84,18.98,55.03,18.98z"/>
</g>
</svg>
